<?xml version="1.0" standalone="no"?>
<!DOCTYPE svg>
<svg id="svg" version="1.1" xmlns="http://www.w3.org/2000/svg"
    xmlns:xlink="http://www.w3.org/1999/xlink" width="256" height="256"
    viewBox="0, 0, 400,442.8835489833641">
    <g id="svgg">
        <path id="path0"
            d="M160.353 113.956 L 160.259 160.259 113.956 160.353 L 67.652 160.446 67.652 200.001 L 67.652 239.556 114.048 239.556 L 160.444 239.556 160.444 285.952 L 160.444 332.348 200.000 332.348 L 239.556 332.348 239.556 285.952 L 239.556 239.556 285.952 239.556 L 332.348 239.556 332.348 200.001 L 332.348 160.446 286.044 160.353 L 239.741 160.259 239.647 113.956 L 239.554 67.652 200.000 67.652 L 160.446 67.652 160.353 113.956 "
            stroke="none" fill="#fbfbfb" fill-rule="evenodd"></path>
        <path id="path1"
            d="M160.165 113.769 L 160.074 160.071 113.771 160.166 L 67.468 160.262 113.782 160.353 C 150.561 160.425,160.133 160.348,160.273 159.982 C 160.370 159.727,160.406 138.808,160.352 113.494 L 160.256 67.468 160.165 113.769 M239.739 113.863 L 239.741 160.259 285.952 160.261 L 332.163 160.263 286.046 160.167 L 239.929 160.071 239.833 113.769 L 239.737 67.468 239.739 113.863 M160.253 285.952 C 160.253 311.571,160.297 321.997,160.351 309.121 C 160.405 296.245,160.405 275.284,160.351 262.541 C 160.297 249.798,160.253 260.333,160.253 285.952 M239.736 285.952 C 239.736 311.571,239.780 321.997,239.834 309.121 C 239.887 296.245,239.887 275.284,239.834 262.541 C 239.780 249.798,239.736 260.333,239.736 285.952 "
            stroke="none" fill="#ec948c" fill-rule="evenodd"></path>
        <path id="path2"
            d="M179.460 1.472 C 121.566 3.724,63.803 14.058,7.394 32.253 L 1.294 34.221 1.181 50.659 C 0.404 163.507,9.886 230.077,34.854 287.061 C 63.956 353.479,117.383 404.431,194.538 439.347 L 199.982 441.811 202.856 440.546 C 276.961 407.927,330.576 358.974,360.836 296.303 C 389.027 237.919,399.642 169.219,398.819 50.499 L 398.706 34.270 397.227 33.751 C 349.705 17.066,286.339 5.045,229.020 1.843 C 219.672 1.320,189.212 1.092,179.460 1.472 M239.926 113.678 L 239.926 160.074 286.323 160.074 L 332.721 160.074 332.626 199.908 L 332.532 239.741 286.229 239.835 L 239.926 239.929 239.926 286.138 L 239.926 332.348 200.000 332.348 L 160.074 332.348 160.074 286.138 L 160.074 239.929 113.771 239.835 L 67.468 239.741 67.374 199.908 L 67.279 160.074 113.677 160.074 L 160.074 160.074 160.074 113.678 L 160.074 67.283 200.000 67.283 L 239.926 67.283 239.926 113.678 "
            stroke="none" fill="#dc2414" fill-rule="evenodd"></path>
        <path id="path3"
            d="M67.465 199.908 L 67.468 239.741 113.678 239.743 L 159.889 239.746 113.772 239.650 L 67.656 239.554 67.559 199.814 L 67.463 160.074 67.465 199.908 M332.438 199.721 L 332.348 239.554 286.044 239.649 L 239.741 239.744 286.056 239.835 C 322.835 239.907,332.407 239.831,332.547 239.464 C 332.644 239.210,332.679 221.201,332.626 199.445 L 332.529 159.889 332.438 199.721 "
            stroke="none" fill="#e45f57" fill-rule="evenodd"></path>
        <path id="path4"
            d="M180.129 67.560 C 191.058 67.614,208.942 67.614,219.871 67.560 C 230.799 67.506,221.858 67.461,200.000 67.461 C 178.142 67.461,169.201 67.506,180.129 67.560 "
            stroke="none" fill="#ec746c" fill-rule="evenodd"></path>
    </g>
</svg>